<?xml version="1.0" encoding="utf-8"?>
<!-- Generator: Adobe Illustrator 23.0.1, SVG Export Plug-In . SVG Version: 6.00 Build 0)  -->
<svg version="1.1" id="Layer_1" xmlns="http://www.w3.org/2000/svg" xmlns:xlink="http://www.w3.org/1999/xlink" x="0px" y="0px"
	 viewBox="0 0 47 86.8" style="enable-background:new 0 0 47 86.8;" xml:space="preserve">
<style type="text/css">
	.st0{fill:#2F194B;}
</style>
<g>
	<path class="st0" d="M30.3,6.2c-1.5-2.2-3.6-3.6-6.5-3.7c-5.4-0.2-9.2,2.2-12.1,6.1c-1.2,1.7-1.5,3.5-0.7,5.4
		c0.6,1.5,0.2,2.7-1.2,3.7c-0.5,0.4-1.1,0.7-1.6,1.1c-2.5,1.7-2.7,4.6-0.4,6.6c0.1,0.1,0.2,0.2,0.3,0.3c0-0.3,0-0.6-0.1-0.9
		c-0.1-0.4,0,0-0.1-0.4c-0.1-0.4-0.1-0.3-0.1-0.4c0-0.1,0,0,0-0.1c-0.8-1.4-0.6-3.1,0.9-4.1c0.8-0.5,1.6-0.9,2.3-1.4
		c1.6-1.2,2.4-2.7,1.6-4.5c-0.9-2.1-0.1-3.9,1.2-5.5c1.8-2.3,4.4-3.8,7.5-4.6c0.3-0.1,3-0.6,5.4,0.7c-2.1-0.7-4.3-0.3-4.3-0.3
		C19.6,5,18.5,6.6,18.4,9c-0.1,1.5-0.4,3.1-0.5,4.6c-0.1,1.4-1,2.3-2.2,3.1c-1.1,0.6-2.2,1.2-3.4,1.7c-2.4,1.1-4,2.7-4.3,5.2
		c0,0.1,0,0,0,0.1c0,0.2,0,0,0,0.2c0,0.1,0,0.2,0.1,0.3c0,0.2,0.1,0.3,0.2,0.5c0.1,0.3,0.2,0.7,0.3,1c0,0.1,0,0,0,0.1
		c0.2,0.7,0,0.7-0.9,1.2c-1.4,0.7-2,1.8-2.1,3.2c-0.2,2.4,0.3,4.6,1.6,6.7c0.9,1.4,1.7,2.8,2.5,4.2c0.6,1,1.3,2.1,1.6,3.2
		c1,4,0.6,7.9-0.3,11.8c-1.2,5.3-0.8,10.3,1.3,15.3c0.2,0.5,0.4,1.1,1.1,1.4c0.2-0.6,0-1-0.2-1.5c-1.9-5.3-1.8-10.5-0.4-15.9
		c1.6-6.2,1.4-12.2-3-17.7c-1.5-1.9-2.5-4.2-2.7-6.6c-0.2-1.6,0.4-3,1.8-3.4c1.2-0.3,2.2-1,3.3-1.5c1.9-0.9,3.7-1.7,5.2-3.1
		c1.3-1.3,2.2-2.7,2.2-4.5c-0.5,0.1-0.6,0.4-0.7,0.7c-1.2,3.4-4.6,4.5-7.7,6.1c-0.7,0.4-1.5,0.4-1.6-0.6c-0.3-2-0.2-3.6,2.1-5
		c0.8-0.5,1.8-0.9,2.7-1.3c4.1-1.4,5.8-4.1,5.6-7.9c-0.1-1.2,0-2.4,0.4-3.6c0.7-2.1,2.9-3.1,5.1-2.3c1.4,0.5,2.7,1.1,4,1.9
		c0.3,0.2,0.7,0.6,1.2,0.3C30.8,6.9,30.5,6.5,30.3,6.2z"/>
	<path class="st0" d="M35,85.3c-0.8-0.2-1.3-0.7-1.8-1.1c-2.1-1.8-4-3.7-5.9-5.6c-1-1-1.3-0.9-2,0.2c-1.2,2.1-2.4,4.2-4.1,6.1
		c-0.2,0.2-0.4,0.7-0.8,0.4c-0.4-0.2-0.1-0.6,0.1-0.8c1.3-2.2,2.7-4.5,4.2-6.6c0.6-0.8,0.6-1.3-0.1-2.1c-2.1-2.2-4-4.5-6.1-6.8
		c-0.3-0.3-0.5-0.8-1-0.6c-0.5,0.1-0.4,0.6-0.5,0.9c-1.3,4-2.7,8-4.4,11.9c-0.1,0.2-0.1,0.4-0.2,0.5c-0.2,0.3-0.3,0.9-0.8,0.7
		c-0.5-0.2-0.2-0.7-0.1-1.1c1-4.5,2.7-8.9,4.9-13.1c0.4-0.8,0.3-1.4-0.2-2.1c-1-1.4-1.8-2.9-2-4.6c-0.4-3.1,0.9-5.6,3.2-7.7
		c1.1-1.1,2.3-2.1,3.4-3.2c3.4-3.5,2.9-6.7-1.4-9.3c-1.8-1.1-3.4-2.5-4.5-4.2c-0.4-0.6-0.8-1.2-0.8-1.9c0.5-0.2,0.6,0.2,0.7,0.4
		c1.7,2.4,3.8,4.2,6.6,5.6c3.2,1.6,4.2,5.7,2.1,8.6c-1.3,1.8-3,3.3-4.7,4.8c-2.2,2-3.2,4.4-2.7,7.3c0.3,1.8,1.3,3.3,2.5,4.7
		c5.1,5.9,10,12,15.7,17.5C34.6,84.5,34.9,84.7,35,85.3z"/>
	<path class="st0" d="M32.4,62.5c3.1-4.8,2.7-9.9,1.8-15.1c-0.3-1.7-0.4-3.4-0.6-5c-0.3-1.9,0.5-3.6,1.4-5.2
		c0.4-0.8,0.9-1.5,1.3-2.3c0.6-1.4,0.2-2.8-1.4-3.2c-3.2-0.9-4.4-3.7-2.8-6.9c1.3-2.9,3.1-5.5,5.1-8.1c1.2-1.6,2.6-3.2,3.5-4.9
		c0.4-0.7,1-1.6,0.3-2.3c-0.7-0.8-1.8-0.5-2.7-0.2c-1.4,0.4-2.7,0.9-4,1.3c-0.4,0.1-0.8,0.3-1.3,0.3c1.3-1.6,6.1-3.2,8.2-2.6
		c1.4,0.4,1.8,1.1,1.4,2.6c-0.5,1.8-1.5,3.3-2.6,4.8c-1.8,2.4-3.5,4.8-4.9,7.5c-0.8,1.5-1.5,2.9-1.5,4.6c0,1,0.4,1.8,1.5,2.2
		c4.2,1.7,4.5,3.9,2.1,7.4c-1.6,2.4-1.9,4.9-1.5,7.6c0.6,3.9,1,7.8,0.3,11.7c-0.3,1.8-1,3.4-2.1,5C33.4,61.9,33,62.3,32.4,62.5
		L32.4,62.5z"/>
	<path class="st0" d="M32.2,62.6c1.3,1.8,0,0,1.3,1.8c4.3,5,7.9,10.4,10.4,16.3c0.2,0.5,0.8,1.2,0.2,1.5c-0.7,0.3-0.9-0.6-1.1-1.1
		c-4-7.4-9.1-14.2-14.6-20.8c-0.3-0.3-0.6-0.7-0.6-1.3c1,0.2,1.7,1,2.4,1.6C31,61.3,30.2,60.7,32.2,62.6
		C32.3,62.9,32.2,62.6,32.2,62.6z"/>
	<path class="st0" d="M29.3,8c-0.6,0.1-1.1-0.3-1.6-0.5c-0.9-0.3-1.7-0.4-2.6-0.3c-2.1,0.4-2.9,1.7-1.9,3.4c0.2,0.4,0.5,0.7,0.7,1.1
		c0.6,0.9,1,1.8,0.3,2.8c-0.8,1.1-1.9,1.4-3.5,1.6c0.4-0.6,0.9-0.7,1.3-0.9c1.6-0.8,1.8-1.6,1-3c-0.3-0.5-0.6-0.9-0.9-1.4
		c-0.9-1.5-0.4-3,1.3-3.9C25.2,5.8,28.2,6.4,29.3,8z"/>
	<path class="st0" d="M23.4,17.9c0.7,0,0.9,0.6,1.4,0.8c1.1,0.6,2,0.4,2.4-0.7c0.3-0.7,0.6-1.3,1.3-1.7c0.4-0.2,0.6-0.5,0.5-0.9
		c-0.6-1.8,1.1-3,1.6-4.5c0.1-0.4,0.6-0.4,0.9-0.1c0.4,0.3,0,0.4-0.2,0.6c-0.5,0.8-1,1.5-1.5,2.3c-0.3,0.5,0,1,0.3,1.4
		c0.4,0.7,0.3,1.3-0.5,1.6c-0.7,0.3-1.1,0.8-1.4,1.5c-0.4,0.9-1.1,1.6-2.3,1.6C24.9,20,23.7,18.9,23.4,17.9z"/>
	<path class="st0" d="M22.8,39.1c-1.2-0.1-2.4-0.7-3.5-1.5c-0.3-0.2-0.7-0.4-0.5-0.8c0.3-0.4,0.6,0,0.9,0.1c0.3,0.1,0.6,0.3,1,0.4
		c2.6,1.1,4,0.6,5.4-1.6c0.2-0.4,0.2-1.1,0.8-1c0.7,0.2,0.4,0.9,0.3,1.4C26.8,37.8,24.9,39.1,22.8,39.1z"/>
	<path class="st0" d="M10.3,27.5c-0.3,0.1-0.5,0.1-0.8,0.2c0.2,0.3,0.4,0.5,0.7,0.7c0.1,0.1,0.2,0.2,0.3,0.3c0-0.3,0-0.6-0.1-0.9
		C10.3,27.4,10.4,27.8,10.3,27.5z"/>
</g>
</svg>
