<?xml version="1.0" encoding="utf-8"?>
<!-- Generator: Adobe Illustrator 23.0.1, SVG Export Plug-In . SVG Version: 6.00 Build 0)  -->
<svg version="1.1" id="Layer_1" xmlns="http://www.w3.org/2000/svg" xmlns:xlink="http://www.w3.org/1999/xlink" x="0px" y="0px"
	 viewBox="0 0 48.7 48" style="enable-background:new 0 0 48.7 48;" xml:space="preserve">
<style type="text/css">
	.st0{fill:#30164B;}
	.st1{fill:#686868;}
	.st2{fill:#FFFFFF;}
</style>
<path class="st0" d="M801.3,244.1H649c-13.5,0-24.6-11.1-24.6-24.6V62.4c0-13.5,11.1-24.6,24.6-24.6h157.6
	c13.5,0,24.6,11.1,24.6,24.6v151.8C831.2,230.6,817.8,244.1,801.3,244.1z"/>
<path class="st0" d="M35.8,47.7H12.6c-6.6,0-12-5.4-12-12V12.6c0-6.6,5.4-12,12-12h23.1c6.6,0,12,5.4,12,12v23.1
	C47.8,42.3,42.4,47.7,35.8,47.7z"/>
<g>
	<g>
		<path class="st1" d="M29.4,36.3L29.4,36.3l-1.1-0.9c-0.1-0.1-0.4-0.3-0.5-0.4c-0.9-0.6-2-0.7-2.1-0.7c-1-0.2-2-0.2-3,0
			c-0.1,0-0.3,0.1-0.4,0.1c-0.5,0.1-0.9,0.3-1.3,0.5c-0.1,0.1-0.3,0.1-0.4,0.2c-0.2,0-1.8,1.3-2.6,1.8c-3.6,1.8-7.9,0.4-9.7-3.2
			c-1.7-3.3-0.6-7.3,2.5-9.3c0.8-0.5,3.1-1.3,3.3-1.5c1.8-0.9,4.5-4.4,4-6.8c-1-5,0-7.6,3.5-9.3c3.6-1.9,8.1-0.4,9.8,3.3
			c1.6,3.6-0.6,6.5,1.2,10.1c1,2.1,3.7,2.9,5.1,3.7c1.2,0.8,2.1,1.9,2.7,3.4c1.3,3.3,0.1,7.1-2.9,9C34.9,38.1,31.8,37.9,29.4,36.3z"
			/>
		<path class="st2" d="M14.7,38.2c-0.8,0-1.6-0.1-2.4-0.4c-2-0.6-3.6-2-4.5-3.9C6,30.5,7.2,26.2,10.5,24c0.6-0.4,2-1,2.8-1.3
			c0.3-0.1,0.5-0.2,0.5-0.2c1.7-0.9,4.2-4.2,3.8-6.2c-1-5.1,0.1-8,3.7-9.9c1.9-1,4.2-1.1,6.2-0.4c1.9,0.7,3.5,2.1,4.3,4
			s0.7,3.5,0.6,5.1c-0.1,1.7-0.2,3.2,0.6,5c0.7,1.4,2.3,2.2,3.7,2.9c0.5,0.2,0.9,0.4,1.2,0.7c1.3,0.9,2.3,2.1,2.9,3.6
			c1.4,3.5,0.1,7.6-3.1,9.6c-2.6,1.6-6,1.6-8.5-0.1h-0.1L29,36.6l-1-0.9c-0.1-0.1-0.3-0.3-0.4-0.3c-0.8-0.5-1.6-0.6-1.9-0.7l0,0
			h-0.1c-0.9-0.2-1.8-0.2-2.8,0h-0.1h-0.1c0.1,0-0.1,0-0.1,0.1h-0.1c-0.4,0.1-0.8,0.3-1.2,0.5c-0.1,0.1-0.2,0.1-0.4,0.2h-0.1
			c0,0-0.3,0.2-0.6,0.4c-0.6,0.4-1.4,1-1.9,1.3C17.1,37.9,15.9,38.2,14.7,38.2z M24.9,6.6c-1.1,0-2.2,0.3-3.1,0.8
			c-3.2,1.7-4.1,4.1-3.2,8.8c0.5,2.6-2.3,6.3-4.3,7.3c-0.1,0-0.3,0.1-0.6,0.3C13,24.1,11.6,24.6,11,25c-2.8,1.8-3.8,5.6-2.3,8.7
			c0.8,1.6,2.2,2.8,3.9,3.4c1.7,0.6,3.5,0.4,5.1-0.4c0.5-0.2,1.2-0.8,1.8-1.2c0.5-0.4,0.7-0.5,0.8-0.5c0.1-0.1,0.2-0.1,0.4-0.2
			c0.4-0.2,0.9-0.4,1.4-0.6c0.1-0.1,0.3-0.1,0.5-0.1c1-0.2,2.1-0.2,3.1,0c0.5,0,1.4,0.3,2.2,0.8c0.3,0.1,0.7,0.5,0.7,0.5l1.1,0.9
			c2.3,1.5,5.2,1.5,7.5,0.1c2.8-1.7,3.9-5.4,2.7-8.4c-0.5-1.3-1.4-2.4-2.5-3.1c-0.3-0.2-0.7-0.4-1.2-0.6c-1.4-0.7-3.2-1.6-4.1-3.3
			c-1-2-0.9-3.8-0.8-5.5c0.1-1.6,0.2-3-0.5-4.7c-0.7-1.6-2-2.8-3.7-3.4C26.4,6.7,25.7,6.6,24.9,6.6z"/>
	</g>
	<g>
		<path class="st0" d="M36.6,25.5C36.5,25.5,36.5,25.5,36.6,25.5L35.3,26c-0.1,0-0.5,0.2-0.6,0.3c-0.9,0.5-1.6,1.4-1.6,1.4
			c-0.6,0.7-1.1,1.6-1.4,2.5c0,0-0.1,0.3-0.1,0.4c-0.1,0.4-0.2,0.9-0.2,1.4c0,0.1,0,0.3,0,0.4c0,0.2,0.3,2.1,0.3,3
			c-0.1,3.9-3.4,6.9-7.3,6.8c-3.5-0.1-6.5-3-6.7-6.5c-0.1-0.9,0.3-3.2,0.3-3.5c0.1-2-1.6-5.9-3.8-6.6c-4.7-1.5-6.4-3.6-6.3-7.3
			c0.1-3.9,3.5-7.1,7.4-6.7c3.8,0.4,5.2,3.6,9.2,3.7c2.2,0.1,4.2-1.7,5.6-2.5c1.2-0.6,2.6-0.9,4.1-0.7c3.4,0.4,6.1,3.3,6.3,6.7
			C40.6,21.7,39,24.3,36.6,25.5z"/>
		<path class="st2" d="M24.7,42.8c-0.1,0-0.2,0-0.3,0c-3.8-0.1-6.9-3.2-7.2-6.9c0-0.7,0.1-2.1,0.3-3c0-0.3,0.1-0.5,0.1-0.6
			c0.1-1.9-1.6-5.5-3.5-6.1c-4.8-1.6-6.7-3.9-6.6-7.8c0.1-2.1,1-4.1,2.6-5.4c1.5-1.3,3.4-2,5.4-1.8s3.3,1.1,4.6,1.9
			c1.3,0.9,2.6,1.7,4.5,1.8c1.6,0.1,2.9-0.9,4.1-1.7c0.4-0.3,0.8-0.5,1.1-0.7c1.4-0.7,2.9-1,4.4-0.8c3.6,0.4,6.5,3.5,6.7,7.2
			c0.2,3-1.4,5.8-4.1,7.2l0-0.1h-0.1l-1.2,0.5c-0.1,0-0.4,0.2-0.4,0.2c-0.8,0.4-1.3,1.1-1.4,1.2l0,0L33.6,28c-0.6,0.7-1,1.5-1.3,2.3
			l-0.1,0.1v0.1v0.1l0,0C32.1,31,32,31.4,32,31.9c0,0.1,0,0.3,0,0.4v0.1v0.1c0,0,0,0.3,0.1,0.7c0.1,0.7,0.2,1.7,0.2,2.3
			c-0.1,2-0.9,3.9-2.4,5.2C28.4,42.1,26.6,42.8,24.7,42.8z M14.7,12.1c-1.5,0-2.9,0.5-4.1,1.5c-1.3,1.2-2.2,2.9-2.2,4.7
			c-0.1,3.5,1.5,5.4,5.9,6.8c2.4,0.8,4.2,4.9,4.2,7.1c0,0.1,0,0.3-0.1,0.7c-0.1,0.8-0.3,2.2-0.2,2.8c0.2,3.2,3,5.9,6.2,6
			c1.7,0.1,3.4-0.5,4.7-1.7c1.3-1.2,2-2.8,2.1-4.5c0-0.5-0.1-1.4-0.2-2.1c-0.1-0.6-0.1-0.8-0.1-0.9c0-0.1,0-0.3,0-0.4
			c0-0.5,0.1-1,0.2-1.4c0-0.1,0.1-0.3,0.1-0.5c0.3-1,0.8-1.9,1.4-2.6c0.3-0.4,0.9-1.1,1.7-1.5c0.2-0.2,0.7-0.3,0.7-0.3l1.3-0.5
			c2.3-1.2,3.7-3.7,3.6-6.3c-0.2-3.2-2.7-5.8-5.8-6.2c-1.3-0.2-2.7,0.1-3.8,0.7c-0.3,0.2-0.7,0.4-1.1,0.7c-1.3,0.9-2.9,2-4.8,1.9
			c-2.2-0.1-3.6-1-5-2c-1.3-0.8-2.5-1.6-4.2-1.8C15.1,12.1,14.9,12.1,14.7,12.1z"/>
	</g>
	<g>
		<g>
			<path class="st2" d="M29.5,24.9c-0.4-0.6-1-1-1.7-1.3c0.7-0.7,1.1-1.5,1.1-2.4c0-0.5-0.1-1-0.3-1.6c-0.2-0.5-0.5-0.9-0.9-1.3
				c-0.4-0.3-0.8-0.6-1.4-0.7c-0.5-0.1-1.2-0.2-2.1-0.2h-2v5.8h2v1.6h-2v5.9h3c0.9,0,1.7-0.1,2.3-0.3c0.6-0.2,1-0.5,1.5-0.9
				c0.7-0.7,1.1-1.6,1.1-2.6C30.1,26.2,29.9,25.5,29.5,24.9z M24.2,19.4h0.7c0.7,0,1.2,0.2,1.5,0.5c0.4,0.3,0.5,0.8,0.5,1.4
				s-0.2,1.1-0.5,1.5c-0.3,0.3-0.9,0.5-1.6,0.5h-0.6V19.4z M27.4,28.4c-0.4,0.4-1.1,0.5-2,0.5h-1.2v-4h1c1.1,0,1.8,0.2,2.2,0.6
				c0.4,0.4,0.6,0.9,0.6,1.4C28.1,27.5,27.9,28,27.4,28.4z"/>
		</g>
		<polygon class="st2" points="21.3,22.1 21.3,27 19.5,27 19.5,25.4 17.9,25.4 17.9,23.7 19.5,23.7 19.5,22.1 		"/>
	</g>
</g>
</svg>
